<?xml version="1.0" encoding="utf-8"?>
<!-- Generator: Adobe Illustrator 21.1.0, SVG Export Plug-In . SVG Version: 6.00 Build 0)  -->
<svg version="1.1" id="Layer_1" xmlns="http://www.w3.org/2000/svg" xmlns:xlink="http://www.w3.org/1999/xlink" x="0px" y="0px"
	 viewBox="0 0 100 100" style="enable-background:new 0 0 100 100;" xml:space="preserve">
<path d="M68.5,73.6c0.4-1.9,0.9-3.8,1.5-5.6c0.5-1.9,1.2-3.7,2.2-5.4c1.3-1.9,3.6,0.5,4.5,1.6l0,0l0,0l0,0l0,0l0.1,0.1l0,0l0,0
	l0.1,0.1c-1.5,2.3-3.2,4.3-5.3,6C70.5,71.4,69.4,72.5,68.5,73.6z"/>
<path d="M79.4,67.2c-0.1,0.8-0.5,1.6-1,2.3c-0.8,1.2-1.7,2.4-2.6,3.5l-0.3,0.4l0,0c-0.8,0.9-1.7,1.8-2.5,2.7s-2,1.5-3,2.3l-0.2,0.3
	c-0.3,0-0.6-0.6-0.7-0.8c-0.6-1-0.7-2.1-0.5-3.3c1.2-1.5,2.6-3,4-4.3c2-1.7,3.8-3.6,5.4-5.8c0.3,0.4,0.5,0.8,0.8,1.2
	C79,66.2,79.3,66.7,79.4,67.2z"/>
<path d="M95,78.1L95,78.1L95,78.1L95,78.1z M92.8,68.4c0.1-0.1,0.2-0.3,0.2-0.5C92.9,68.2,92.9,68.3,92.8,68.4z M94.1,77.7
	C93.3,76.6,92.2,75,91,75l-1.2,0.2l0.5-0.9c1-1.9,1.9-3.8,2.5-5.9c-0.1,0.1-0.1,0.1-0.2,0.1c-0.3,0-0.4-0.4-0.8-0.2
	s-0.3,0.5-0.4,0.7c-0.2,0.5-0.5,1.1-1.1,1.1s-1-1.1-1.4-1.1s-0.4,0.8-0.5,1.1c0,0.6-0.6,1-1.1,1s-0.9-0.4-1-0.9
	c-0.2-0.6,0-1.2-0.1-1.8c-0.2-0.8,0.1-1.1,0.3-1.9s-0.1-0.8-0.4-1.4s0.3-1,0.9-1.2c0.6-0.1,1.2-0.1,1.8,0c0.3,0.1,0.6,0.2,0.9,0.3
	c0.3,0,0.6-0.2,0.9-0.1c0.6,0.1,1,0.6,1,1.2c0,0.4-0.3,1.1,0,1.4c0.2,0.1,0.5,0,0.8,0.1c0.2,0.1,0.4,0.4,0.4,0.6
	c0.1,0.2,0.1,0.4,0.2,0.6c2.9-9.8,0.9-20.9-5.6-30.2c-2.2-3.2-4.9-6-7.9-8.4c-1.8-1.4-3.7-2.7-5.7-3.9c-0.5-0.3-1.1-0.5-1.6-0.8
	s-1.2-0.5-1.7-0.9c-0.4-0.3-0.7-0.6-1-1c-3.5-2.8-7.2-5.3-11.1-7.5c-3.5-1.7-7.2-3.1-11-4c0,0-1.1-0.4-1.4-0.4
	c0.5,0.3,2,1.2,2.1,1.3c1.9,1.3,3.7,2.8,5.3,4.4c1.1,1,2.3,2,3.5,3l1.5,1.2l-1.8-0.3c-1.7-0.2-3.4-0.4-5.1-0.5
	c-2.6-0.2-8.1-1.2-8.4-1.3l-0.4-0.2c1.2,0.8,2.5,1.6,3.8,2.2L47,21c5.2,2.7,10.8,4.7,16.7,5.7c1.2,0.2,2.3,0.3,3.5,0.3
	c0.3-0.1,0.6-0.1,0.8,0c0.7,0.3,1.2,0.7,1.6,1.3c2.3,2.6,4.4,5.4,6.4,8.3c1.8,2.9,3.1,6.1,4,9.4c0.4,1.5,0.7,3,0.9,4.5
	c0.1,0.5,0.2,1.9,0.2,2v0.3c0.1,3.4-0.5,6.8-2,9.9c-0.3,0.6-0.6,1.2-1,1.7c-1.5,2.2-3.4,4.1-5.4,5.8c-1.4,1.4-2.8,2.8-4,4.3l-0.9,1
	c-1.2,1.4-2.3,2.8-3.4,4.2c-0.5,0.6-0.9,1.3-1.1,2c-0.3,0.8,0.3,1.5,1,2.4c2,2.4,5,2.7,7.9,2.6c3.2,0,6.2-0.9,9-2.4
	c0.4-0.2,1.3-0.9,1.5-1c0.3-0.3,0.6-0.5,1-0.7c0.4-0.1,0.8-0.1,1.2,0c0.2,0,1.4,0.1,1.9,0c2,0,6.1-0.4,6.3-0.4
	c0.9-0.1,2.4-0.2,2.7-0.9C96.1,80.7,94.1,77.7,94.1,77.7z M72.5,83.4c-0.8-2.1,5.6-4.6,6.4-2.5S73.3,85.5,72.5,83.4z M82.2,80.9
	c0,0.1,0,0.2,0,0.3C82.2,81.2,82.2,81.1,82.2,80.9c-0.1-0.2-0.2-0.4-0.3-0.7c-0.1-0.3-0.2-0.6-0.3-0.9c-0.2-0.3-0.4-0.6-0.6-0.8
	c-0.5-0.4-1.1-0.8-1.7-1l-0.9-0.4c0.3,0,0.7,0,1,0.1s0.7,0.2,1,0.3c0.4,0.2,0.7,0.4,1,0.7c0.3,0.3,0.5,0.6,0.7,1
	c0.1,0.3,0.2,0.7,0.2,1C82.3,80.5,82.3,80.7,82.2,80.9z M82.6,68c-1.2,1.2-2.5,2.3-3.9,3.2c-1.2,0.8-2.3,1.5-3.3,2.2l0.3-0.4
	c0.9-0.6,1.8-1.2,2.8-2c1.4-1,2.6-2.1,3.8-3.3c1.3-1.3,2.4-2.9,3.2-4.5c0.9-1.8,1.4-3.7,1.6-5.7c0.2-2.1,0.1-4.1-0.2-6.2
	c-0.3-1.8-0.7-3.6-1.3-5.3c-0.5-0.1-1.1-0.2-1.6-0.3c-1.2-0.3-1.9-1.3-2.9-2c-0.5-0.3-1-0.7-1.2-1.3c-0.3-0.7-0.7-1.5-1.1-2.1
	c-0.7-1.1-0.5-2.5,0.5-3.3c0.5-0.3,1-0.5,1.6-0.6c-0.3-0.4-0.6-0.8-0.9-1.2c-1-1.3-2.2-2.5-3.4-3.7c-1.8-1.7-3.8-3.3-5.8-4.8
	c-1.5-1.1-2.4-1.6-2.4-1.6l0,0c0,0,0.9,0.5,2.4,1.5c2.1,1.4,4.1,2.9,6,4.7c1.3,1.1,2.4,2.4,3.5,3.7c0.4,0.5,0.8,1,1.1,1.5
	c0.6-0.1,1.2,0.2,1.6,0.6c0.8,1.1,0.9,2.2,2.4,2.6c0.5,0.1,1.1,0.2,1.6,0.5c0.6,0.5,0.5,1.2,0.5,1.8c0,1.5,0.8,2.5,1.5,3.7
	c0.3,0.5,1.6,2.8,0,2.8c-0.7,0-1-0.8-1.4-1.2c-0.3-0.3-0.6-0.6-1-0.7c-0.2-0.1-0.3-0.1-0.5-0.2c0.5,1.7,0.9,3.4,1.1,5.1
	c0.3,2,0.4,4.1,0.2,6.2c-0.2,2-0.8,4-1.7,5.8C85,65.1,83.9,66.6,82.6,68z"/>
<path d="M95,78.1L95,78.1L95,78.1L95,78.1z M92.8,68.4c0.1-0.1,0.2-0.3,0.2-0.5C92.9,68.2,92.9,68.3,92.8,68.4z"/>
<path d="M93,68c0,0.2,0,0.3-0.2,0.5C92.9,68.3,92.9,68.2,93,68z"/>
<path d="M75.8,73l-0.3,0.4l0,0l-3.1,1.9c-0.8,0.5-1.6,1.1-2.2,1.8l0,0c0.7-0.7,1.4-1.3,2.2-1.8C73.2,74.7,74.4,74,75.8,73z"/>
<path d="M85.8,47c-0.5-1-0.9-2.1-1.2-3.1c-0.3-0.8-0.6-1.6-0.9-2.4c-0.5-1.2-1.2-2.3-1.9-3.4c-0.4-0.5-0.7-1.1-1-1.7l0.8-0.5
	c0.3,0.5,0.7,1.1,1,1.6c0.8,1.1,1.4,2.3,2,3.5c0.3,0.8,0.6,1.6,0.9,2.4c0.4,1,0.8,2.1,1.2,3.1L85.8,47z"/>
<path d="M58.6,82c-2.1-1.7-4.7-3.3-10.5-5.5c-3.3-1.2-6.6-2.2-10-3c-1.1-0.3-2.3-0.4-3.4-0.3l-0.8,0.1c-0.3-0.2-0.6-0.5-0.8-0.8
	c-2.2-2.6-4.3-5.2-6.2-8.1c-1.7-2.8-3-5.8-3.9-9c-0.4-1.4-0.7-2.8-0.8-4.3c0-0.5-0.1-1.8-0.1-1.8c-0.2-3.3,0.4-6.6,1.9-9.7
	c0.2-0.5,0.5-0.9,0.7-1.4l0.1-0.1c0.4,0.5,0.9,1.1,1,1.2c0.8,0.9,1.8,1.5,3,1.6H29c0.7-0.1,1.4-0.5,1.8-1.1c0.9-1.5,1.6-3.1,2-4.8
	c0.1-0.3,0.2-0.6,0.3-0.9c0.2-0.7,0.4-1.3,0.6-2c0.2-0.7,0.4-1.3,0.5-2s0.5-2.2,0.5-2.3s0.1-0.5,0.1-0.7l0.1-0.1
	c1.2-1.4,2.4-2.9,3.4-4.2c0.6-0.7,1.1-1.6,1.4-2.5c0.6-1.6-0.5-3-1.3-3.8c-2.4-2.9-5.8-3.2-9.1-3.1c-3.4,0-6.7,0.9-9.7,2.5
	c-0.4,0.2-2.1,1.5-2.1,1.5s-6.7,0-8.5,0.2c-0.2,0-3.8,0.3-4.5,1.7s0.9,4.4,0.9,4.4s2.4,3.4,3.8,4c-5.7,11.5-4.3,25.6,3.7,37
	c2.3,3.3,5.1,6.2,8.2,8.7c1.9,1.5,3.8,2.8,5.9,4c0.6,0.3,1.1,0.6,1.7,0.8s1.1,0.5,1.6,0.8c0.4,0.4,0.8,0.8,1.1,1.2
	c3.1,3.1,7.1,5.3,11.1,7.3c3.6,1.8,15,4.4,15.2,4c0.6-1.1-7-6.3-8.6-7.8l-1-0.9c2.7,0,5.5,0.3,8.1,0.9c2.4,0.5,4.4,1.2,4.6,0.7
	S59.3,82.6,58.6,82z M31.8,31.5c-0.2,0.7-0.4,1.3-0.6,2c-0.1,0.3-0.2,0.6-0.3,0.9c-0.4,1.5-1,2.9-1.8,4.2c-0.2,0.3-0.3,0.3-0.4,0.3
	c-0.3,0-0.9-0.2-1.7-1c-0.1-0.1-0.6-0.7-1.2-1.4c1.2-1.4,2.6-2.8,4-4c0.3-0.3,0.8-0.7,1.2-1.2s0.7-0.8,1.1-1.2
	C32,30.6,31.9,31,31.8,31.5z M50.2,81.2c-1.7-0.1-3.4-0.3-5.1-0.6L41.4,80l2.9,2.3c1.2,0.9,2.3,2,3.4,3c1.5,1.4,3.1,2.8,4.8,4
	c-3.2-0.9-6.3-2-9.2-3.5c-3.8-1.9-7.7-4-10.6-6.9c-0.1-0.1-0.3-0.3-0.4-0.4c-0.3-0.4-0.7-0.8-1.2-1.1c-0.6-0.3-1.2-0.6-1.8-0.9
	s-1.1-0.5-1.6-0.8c-2-1.1-3.9-2.4-5.6-3.8c-3-2.4-5.6-5.2-7.8-8.3C8,54.7,6,44.1,8.6,34.6c0.1-0.5,0.3-0.9,0.4-1.4
	c0.6-2,1.4-3.9,2.4-5.7l1-1.8l-2,0.3c-1,0.1-3.1-2.9-3.1-2.9c-0.5-0.6-1.6-2.3-1.2-3c0.2-0.4,1.7-0.5,2.3-0.6L9,19.4
	c1.9-0.2,3.8-0.3,5.6-0.3h1.5c0.6,0.1,1.2,0.1,1.8,0c0.5-0.3,1-0.6,1.4-1c0.4-0.2,0.7-0.5,1.1-0.7c2.7-1.5,5.7-2.3,8.8-2.3
	c3.2-0.1,5.7,0.3,7.5,2.4c0.7,0.8,1.1,1.4,0.9,1.9c-0.2,0.7-0.6,1.3-1.1,1.9s-1.5,1.8-2.3,2.9l-1.7,2c-0.3,0.3-0.5,0.6-0.8,0.9
	c-1.1,1.3-2.2,2.5-3.4,3.7c-1.6,1.4-3,2.8-4.4,4.4c-0.3,0.4-0.6,0.8-0.9,1.2c-0.4,0.6-0.8,1.3-1.2,2c-1.5,3.1-2.2,6.5-2.1,9.9V49
	c0,0.2,0.1,1.5,0.2,2c0.2,1.5,0.5,3.1,0.9,4.6c0.5,1.7,1.1,3.4,1.8,5.1c0.3,0.6,0.5,1.2,0.8,1.8c0.5,0.9,1,1.8,1.5,2.7
	c1.7,2.9,3.8,5.6,6.1,8c0.1,0.1,1.5,1.7,2.1,1.8c0.4,0.1,3.5,0.1,4.4,0.3c5.8,1,11.4,2.9,16.6,5.6l1.5,0.8
	C53.9,81.6,52,81.4,50.2,81.2z"/>
<path d="M15.1,38.1c-0.6,0.1-1.2,0.1-1.8,0c-0.3-0.1-0.6-0.2-0.9-0.3c-0.3,0-0.6,0.2-0.9,0.1c-0.6-0.1-1-0.6-1-1.2
	c0-0.4,0.3-1.1,0-1.4c-0.2-0.1-0.5,0-0.8-0.1c-0.1-0.1-0.2-0.2-0.3-0.3c0.1-0.5,0.3-0.9,0.4-1.4c0.1,0.1,0.3,0.2,0.5,0.1
	c0.2-0.1,0.3-0.5,0.4-0.7c0.2-0.5,0.5-1.1,1.1-1.1s0.9,1.1,1.4,1.1s0.4-0.8,0.5-1.1c0-0.6,0.6-1,1.1-1s0.9,0.4,1,0.9
	c0.2,0.6,0,1.2,0.1,1.8c0.2,0.8-0.1,1.1-0.3,1.9s0.1,0.8,0.4,1.4S15.8,38,15.1,38.1z"/>
<path d="M19.6,64.5c0.2,0.4,0.5,0.8,0.7,1.2l0,0c-0.5,0-1-0.2-1.4-0.6C18,64,18,62.9,16.5,62.5c-0.5,0-1-0.2-1.5-0.5
	c-0.6-0.5-0.5-1.2-0.5-1.8c0-1.5-0.8-2.5-1.5-3.7c-0.3-0.5-1.6-2.8,0-2.8c0.7,0,1,0.8,1.4,1.2c0.3,0.3,0.6,0.6,1,0.7l0.3,0.1h0.1
	h-0.1c0,0.1,0.1,0.2,0.1,0.3c0.4,0.9,0.7,1.7,1,2.6c0.3,0.9,0.6,1.5,0.9,2.3C18.2,62.2,18.8,63.4,19.6,64.5z"/>
<path d="M22.7,65c-0.4,0.3-0.9,0.5-1.4,0.6h-0.1c-0.3-0.5-0.7-1-1-1.6c-0.7-1-1.3-2.1-1.8-3.2L18,59.6l0,0c-0.4-1-0.8-2-1.2-3
	c0-0.1-0.1-0.2-0.1-0.3l0,0c0-0.1-0.1-0.2-0.1-0.3l0,0c0.5,0.1,1,0.1,1.4,0.2c1.2,0.2,1.9,1.3,2.9,2c0.5,0.3,1,0.7,1.2,1.3
	c0.2,0.5,0.4,0.9,0.6,1.3l0.5,0.8c0.2,0.3,0.3,0.6,0.4,1C23.8,63.6,23.5,64.5,22.7,65z"/>
<path d="M23.3,21.1c0.8,2.1,7.2-0.4,6.4-2.5S22.4,19,23.3,21.1z"/>
<path d="M23.7,24.9c-0.3,0-0.7,0-1-0.1s-0.7-0.2-1-0.3c-0.4-0.2-0.7-0.4-1-0.6c-0.3-0.3-0.5-0.6-0.7-1c-0.1-0.3-0.2-0.7-0.2-1
	c0-0.2,0-0.5,0-0.7v-0.3l0.1,0.3c0,0.2,0.1,0.4,0.2,0.7c0.1,0.3,0.2,0.6,0.4,0.9c0.2,0.3,0.4,0.6,0.6,0.8c0.5,0.4,1.1,0.8,1.7,1
	L23.7,24.9z"/>
<path d="M15.8,55.8h-0.1v-0.1c-0.5-1.6-0.8-3.3-1.1-5c-0.3-2.1-0.3-4.2-0.1-6.3c0.2-2,0.8-4,1.7-5.9c0.9-1.7,2-3.3,3.3-4.7
	c1.2-1.2,2.5-2.3,3.9-3.2c2.6-1.8,4.8-3.1,6.4-4.1c0.8-0.5,1.6-1.1,2.2-1.8l0.1,0.1c-0.7,0.7-1.4,1.3-2.2,1.8
	c-1.5,1-3.7,2.4-6.3,4.2c-1.4,1-2.6,2.1-3.8,3.3c-1.3,1.4-2.3,2.9-3.1,4.6c-0.8,1.8-1.4,3.7-1.6,5.7c-0.2,2-0.1,4.1,0.2,6.1
	c0.3,1.8,0.7,3.6,1.3,5.4l0.1,0.3c0-0.1-0.1-0.2-0.1-0.3C16.3,56,16,55.9,15.8,55.8z"/>
<path d="M33.6,76.9L33.6,76.9c-0.1,0.1-1-0.4-2.5-1.4c-0.8-0.5-1.7-1.1-2.7-1.9c-1.2-0.8-2.3-1.7-3.3-2.6c-1.3-1.1-2.5-2.4-3.5-3.7
	c-0.3-0.4-0.6-0.8-1-1.2l0,0l0,0c-0.1-0.1-0.2-0.2-0.3-0.3c-0.7-1-1.4-2.1-2-3.1C17.4,60.9,16.6,59,16,57c-0.1-0.2-0.1-0.4-0.2-0.7
	c0.4,0.9,0.7,1.7,1,2.6c0.8,1.9,1.8,3.8,2.8,5.6c0.2,0.4,0.5,0.8,0.7,1.2c0.3,0,0.7,0,1-0.1l0,0c-0.3-0.5-0.7-1-1-1.6
	c-0.7-1,0.3,0.5,1.1,1.6c1.2,1.7,2.6,3.3,4.2,4.8c1.8,1.7,3.7,3.4,5.7,4.9C32.8,76.4,33.6,76.9,33.6,76.9z"/>
<path d="M15.7,55.9c0,0.1,0.1,0.2,0.1,0.3L15.7,55.9L15.7,55.9z"/>
<path d="M16.4,55.5c0.1,0.2,0.1,0.3,0.2,0.5c-0.3,0-0.5-0.1-0.8-0.2L16.4,55.5z"/>
<path d="M17.6,58.5l0.4,1.1c-0.4-1-0.8-2-1.2-3c0-0.1-0.1-0.2-0.1-0.3C17,57,17.3,57.8,17.6,58.5z"/>
<path d="M21.3,65.6L20.6,66c-0.1-0.1-0.1-0.2-0.2-0.4C20.7,65.7,21,65.7,21.3,65.6z"/>
</svg>
